<?xml version="1.0" encoding="UTF-8"?>
<svg xmlns="http://www.w3.org/2000/svg" xmlns:xlink="http://www.w3.org/1999/xlink" viewBox="0 0 50 50" version="1.1" fill="#ffffff"><g id="surface1" fill="#ffffff"><path style=" stroke:none;fill-rule:nonzero;fill-opacity:1" d="M 17.707031 4.167969 C 15.984375 4.167969 14.582031 5.566406 14.582031 7.292969 L 14.582031 12.957031 C 15.921875 11.902344 17.558594 11.160156 19.402344 10.871094 C 19.878906 10.796875 20.351563 10.734375 20.832031 10.675781 L 20.832031 7.292969 C 20.832031 5.566406 19.433594 4.167969 17.707031 4.167969 Z M 33.074219 11.066406 C 32.265625 10.996094 31.460938 11.347656 31.054688 12.109375 L 30.597656 13.085938 C 30.386719 13.039063 30.167969 12.988281 29.949219 12.957031 C 26.660156 12.441406 23.277344 12.441406 19.988281 12.957031 C 15.234375 13.699219 11.96875 17.785156 12.566406 22.265625 C 12.566406 22.265625 13.589844 28.902344 13.738281 31.121094 C 13.910156 33.746094 13.738281 41.601563 13.738281 41.601563 C 13.734375 43.925781 15.746094 45.832031 18.230469 45.832031 L 31.707031 45.832031 C 34.1875 45.832031 36.199219 43.925781 36.199219 41.601563 C 36.199219 41.601563 36.023438 33.746094 36.199219 31.121094 C 36.347656 28.902344 37.371094 22.265625 37.371094 22.265625 C 37.652344 20.136719 37.078125 18.113281 35.871094 16.472656 L 36.589844 15.039063 C 37.128906 14.023438 36.757813 12.777344 35.742188 12.238281 L 33.917969 11.261719 C 33.664063 11.128906 33.34375 11.089844 33.074219 11.066406 Z M 16.601563 18.75 L 33.269531 18.75 L 33.269531 22.917969 L 16.601563 22.917969 Z M 16.601563 25 L 33.269531 25 L 33.269531 29.167969 L 16.601563 29.167969 Z " fill="#ffffff"/></g></svg>
