<?xml version="1.0" encoding="UTF-8"?>
<svg xmlns="http://www.w3.org/2000/svg" xmlns:xlink="http://www.w3.org/1999/xlink" viewBox="0 0 50 50" version="1.1" fill="#ffffff"><g id="surface1" fill="#ffffff"><path style=" stroke:none;fill-rule:nonzero;fill-opacity:1" d="M 25 4.167969 C 22.699219 4.167969 20.832031 6.03125 20.832031 8.332031 C 20.832031 10.632813 22.699219 12.5 25 12.5 C 27.300781 12.5 29.167969 10.632813 29.167969 8.332031 C 29.167969 6.03125 27.300781 4.167969 25 4.167969 Z M 6.25 14.582031 L 6.25 18.75 L 18.75 18.75 L 18.75 45.832031 L 22.917969 45.832031 L 22.917969 31.25 L 28.386719 31.25 L 30.859375 33.722656 C 31.066406 33.933594 31.015625 34.375 30.597656 34.375 L 25 35.808594 L 25 40.234375 L 32.097656 38.347656 C 33.761719 37.929688 35.011719 36.433594 35.222656 34.765625 C 35.636719 33.308594 35.027344 32.097656 33.984375 31.054688 L 31.25 28.386719 L 31.25 18.75 L 43.75 18.75 L 43.75 14.582031 Z " fill="#ffffff"/></g></svg>
