<?xml version="1.0" encoding="UTF-8"?>
<svg xmlns="http://www.w3.org/2000/svg" xmlns:xlink="http://www.w3.org/1999/xlink" viewBox="0 0 50 50" version="1.1" fill="#ffffff"><g id="surface1" fill="#ffffff"><path style=" stroke:none;fill-rule:nonzero;fill-opacity:1" d="M 25 4.167969 C 21.609375 4.167969 19.101563 5.070313 17.253906 6.25 L 8.332031 6.25 C 8.332031 6.25 8.339844 11.675781 13.402344 12.410156 C 11.59375 13.941406 10.417969 16.199219 10.417969 18.75 C 10.417969 21.207031 11.503906 23.394531 13.199219 24.921875 C 12.878906 25.199219 12.542969 25.515625 12.195313 25.867188 C 12.179688 25.882813 12.164063 25.898438 12.148438 25.910156 C 11.867188 26.199219 11.582031 26.511719 11.292969 26.847656 L 11.292969 26.851563 C 8.824219 29.714844 6.25 34.417969 6.25 41.667969 L 6.25 45.832031 L 10.417969 45.832031 L 10.417969 41.667969 C 10.417969 40.800781 10.472656 39.996094 10.550781 39.222656 C 10.574219 39.003906 10.601563 38.785156 10.632813 38.574219 C 10.710938 37.976563 10.804688 37.40625 10.925781 36.859375 C 10.957031 36.710938 10.984375 36.554688 11.019531 36.410156 C 11.175781 35.757813 11.367188 35.144531 11.570313 34.570313 C 11.625 34.421875 11.683594 34.28125 11.738281 34.140625 C 11.910156 33.699219 12.089844 33.277344 12.28125 32.882813 C 12.347656 32.738281 12.417969 32.597656 12.488281 32.460938 C 12.738281 31.980469 12.996094 31.523438 13.265625 31.113281 C 13.277344 31.09375 13.292969 31.074219 13.304688 31.054688 C 13.574219 30.648438 13.847656 30.28125 14.121094 29.941406 C 14.179688 29.863281 14.242188 29.789063 14.300781 29.714844 C 14.574219 29.390625 14.84375 29.085938 15.105469 28.824219 L 15.117188 28.8125 C 15.414063 28.511719 15.699219 28.25 15.960938 28.023438 C 16.636719 27.449219 17.179688 27.101563 17.445313 26.949219 C 17.871094 27.019531 18.300781 27.082031 18.75 27.082031 C 20.292969 27.082031 21.71875 26.636719 22.957031 25.902344 L 25 27.945313 L 27.042969 25.902344 C 28.28125 26.636719 29.707031 27.082031 31.25 27.082031 C 31.699219 27.082031 32.128906 27.019531 32.554688 26.953125 C 33.566406 27.535156 39.582031 31.457031 39.582031 41.667969 L 39.582031 45.832031 L 43.75 45.832031 L 43.75 41.667969 C 43.75 32.46875 39.613281 27.347656 36.800781 24.921875 C 38.496094 23.394531 39.582031 21.207031 39.582031 18.75 C 39.582031 16.199219 38.40625 13.941406 36.597656 12.410156 C 41.660156 11.675781 41.667969 6.25 41.667969 6.25 L 32.746094 6.25 C 30.898438 5.070313 28.390625 4.167969 25 4.167969 Z M 25 8.332031 C 28.078125 8.332031 30.066406 9.339844 31.359375 10.429688 C 31.324219 10.429688 31.289063 10.417969 31.25 10.417969 C 28.75 10.417969 26.527344 11.546875 25 13.296875 C 23.472656 11.546875 21.25 10.417969 18.75 10.417969 C 18.695313 10.417969 18.648438 10.429688 18.59375 10.433594 C 19.886719 9.339844 21.902344 8.332031 25 8.332031 Z M 18.75 14.582031 C 21.046875 14.582031 22.917969 16.453125 22.917969 18.75 C 22.917969 21.046875 21.046875 22.917969 18.75 22.917969 C 16.453125 22.917969 14.582031 21.046875 14.582031 18.75 C 14.582031 16.453125 16.453125 14.582031 18.75 14.582031 Z M 31.25 14.582031 C 33.546875 14.582031 35.417969 16.453125 35.417969 18.75 C 35.417969 21.046875 33.546875 22.917969 31.25 22.917969 C 28.953125 22.917969 27.082031 21.046875 27.082031 18.75 C 27.082031 16.453125 28.953125 14.582031 31.25 14.582031 Z M 18.75 16.667969 C 17.597656 16.667969 16.667969 17.597656 16.667969 18.75 C 16.667969 19.902344 17.597656 20.832031 18.75 20.832031 C 19.902344 20.832031 20.832031 19.902344 20.832031 18.75 C 20.832031 17.597656 19.902344 16.667969 18.75 16.667969 Z M 31.25 16.667969 C 30.097656 16.667969 29.167969 17.597656 29.167969 18.75 C 29.167969 19.902344 30.097656 20.832031 31.25 20.832031 C 32.402344 20.832031 33.332031 19.902344 33.332031 18.75 C 33.332031 17.597656 32.402344 16.667969 31.25 16.667969 Z M 18.898438 31 C 17.539063 32.070313 14.582031 35.140625 14.582031 41.667969 L 14.582031 45.832031 L 35.417969 45.832031 L 35.417969 41.667969 C 35.417969 35.140625 32.460938 32.070313 31.105469 31 L 25 37.5 Z " fill="#ffffff"/></g></svg>
