<?xml version="1.0" encoding="UTF-8"?>
<svg xmlns="http://www.w3.org/2000/svg" xmlns:xlink="http://www.w3.org/1999/xlink" viewBox="0 0 50 50" version="1.1" fill="#ffffff"><g id="surface1" fill="#ffffff"><path style=" stroke:none;fill-rule:nonzero;fill-opacity:1" d="M 12.5 4.167969 C 10.199219 4.167969 8.332031 6.03125 8.332031 8.332031 C 8.332031 10.632813 10.199219 12.5 12.5 12.5 C 14.800781 12.5 16.667969 10.632813 16.667969 8.332031 C 16.667969 6.03125 14.800781 4.167969 12.5 4.167969 Z M 39.582031 4.167969 C 37.28125 4.167969 35.417969 6.03125 35.417969 8.332031 C 35.417969 10.632813 37.28125 12.5 39.582031 12.5 C 41.882813 12.5 43.75 10.632813 43.75 8.332031 C 43.75 6.03125 41.882813 4.167969 39.582031 4.167969 Z M 10.417969 14.582031 C 9.265625 14.582031 8.332031 15.515625 8.332031 16.667969 L 8.332031 45.832031 L 12.5 45.832031 L 12.5 34.308594 L 13.410156 35.871094 L 14.582031 45.832031 L 18.292969 45.832031 L 17.316406 35.417969 L 14.582031 28.058594 L 14.582031 23.503906 L 15.886719 25.457031 C 16.574219 26.480469 17.714844 27.082031 18.945313 27.082031 L 25 27.082031 L 25 22.917969 L 19.207031 22.917969 L 14.84375 16.40625 C 14.84375 16.40625 14.78125 16.347656 14.777344 16.339844 C 14.738281 16.28125 14.550781 15.980469 14.191406 15.625 C 13.800781 15.234375 13.152344 14.582031 11.914063 14.582031 Z M 40.167969 14.582031 C 38.929688 14.582031 38.28125 15.234375 37.890625 15.625 C 37.535156 15.980469 37.34375 16.28125 37.304688 16.339844 C 37.300781 16.347656 37.238281 16.40625 37.238281 16.40625 L 32.878906 22.917969 L 27.082031 22.917969 L 27.082031 27.082031 L 33.136719 27.082031 C 34.367188 27.082031 35.507813 26.480469 36.199219 25.457031 L 37.5 23.503906 L 37.5 28.058594 L 34.765625 35.417969 L 33.789063 45.832031 L 37.5 45.832031 L 38.671875 35.871094 L 39.582031 34.308594 L 39.582031 45.832031 L 43.75 45.832031 L 43.75 16.667969 C 43.75 15.515625 42.816406 14.582031 41.667969 14.582031 Z " fill="#ffffff"/></g></svg>
