<?xml version="1.0" encoding="UTF-8"?>
<svg xmlns="http://www.w3.org/2000/svg" xmlns:xlink="http://www.w3.org/1999/xlink" viewBox="0 0 50 50" version="1.1" fill="#ffffff"><g id="surface1" fill="#ffffff"><path style=" stroke:none;fill-rule:nonzero;fill-opacity:1" d="M 25 4.167969 C 13.492188 4.167969 4.167969 13.492188 4.167969 25 C 4.167969 36.507813 13.492188 45.832031 25 45.832031 C 36.507813 45.832031 45.832031 36.507813 45.832031 25 C 45.832031 13.492188 36.507813 4.167969 25 4.167969 Z M 31.953125 12.5 C 33.335938 12.5 34.453125 13.617188 34.453125 15 C 34.453125 16.382813 33.335938 17.5 31.953125 17.5 C 30.574219 17.5 29.453125 16.382813 29.453125 15 C 29.453125 13.617188 30.574219 12.5 31.953125 12.5 Z M 18.675781 18.75 C 19.710938 18.75 20.550781 19.589844 20.550781 20.625 C 20.550781 21.660156 19.710938 22.5 18.675781 22.5 C 17.640625 22.5 16.800781 21.660156 16.800781 20.625 C 16.800781 19.589844 17.640625 18.75 18.675781 18.75 Z M 16.429688 35.527344 L 15.304688 37.5 L 13.070313 37.5 L 14.679688 34.472656 L 15.570313 31.289063 L 17.015625 33.457031 Z M 28.433594 34.574219 L 26.953125 37.5 L 24.453125 37.5 L 26.597656 33.464844 L 27.40625 29.429688 L 29.109375 31.917969 Z M 35.703125 37.5 L 33.203125 37.5 L 30.898438 32.59375 L 28.261719 28.300781 C 27.683594 27.402344 27.394531 26.816406 27.585938 25.976563 L 28.273438 22.175781 L 26.425781 22.808594 L 25.332031 26.925781 L 22.167969 27.425781 C 21.703125 27.5 21.226563 27.4375 20.792969 27.242188 L 19.21875 26.449219 L 18.574219 29.511719 L 22.179688 37.5 L 19.992188 37.5 L 18.261719 33.820313 L 16.285156 30.601563 C 15.851563 29.925781 15.636719 29.484375 15.777344 28.855469 L 16.210938 26.566406 L 15.644531 26.910156 C 15.570313 26.953125 15.511719 27.019531 15.472656 27.097656 L 14.300781 29.507813 L 12.5 28.628906 L 13.671875 26.222656 C 13.878906 25.796875 14.203125 25.441406 14.609375 25.199219 L 16.597656 23.992188 C 17.839844 23.507813 19.359375 24.101563 19.722656 24.351563 C 20.351563 24.789063 21.777344 25.460938 21.863281 25.449219 L 23.101563 25.3125 L 24.066406 21.976563 C 24.277344 21.226563 24.839844 20.609375 25.570313 20.328125 L 29.273438 18.960938 C 29.46875 18.835938 30.703125 18.75 30.703125 18.75 L 30.707031 18.75 C 32.109375 18.75 33.390625 19.578125 33.964844 20.859375 L 34.019531 20.996094 C 34.019531 20.996094 34.800781 23.628906 35.117188 24.488281 C 35.449219 25.390625 37.5 27.402344 37.5 27.402344 L 35.582031 29.007813 L 33.703125 26.808594 C 33.28125 26.300781 32.96875 25.808594 32.773438 25.347656 L 32.082031 23.167969 L 31.234375 27.605469 Z " fill="#ffffff"/></g></svg>
