<?xml version="1.0" encoding="UTF-8"?>
<svg xmlns="http://www.w3.org/2000/svg" xmlns:xlink="http://www.w3.org/1999/xlink" viewBox="0 0 50 50" version="1.1" fill="#ffffff"><g id="surface1" fill="#ffffff"><path style=" stroke:none;fill-rule:evenodd;fill-opacity:1" d="M 28.003906 4.882813 C 27.335938 4.902344 26.6875 5.042969 26.09375 5.289063 C 25.679688 5.460938 25.285156 5.6875 24.929688 5.96875 C 24.910156 5.984375 24.894531 6 24.878906 6.015625 L 24.875 6.015625 L 24.871094 6.019531 C 24.851563 6.03125 24.832031 6.042969 24.816406 6.058594 C 24.800781 6.074219 24.78125 6.089844 24.769531 6.101563 L 24.765625 6.109375 L 24.742188 6.125 L 24.722656 6.140625 L 24.675781 6.1875 L 24.660156 6.199219 L 24.632813 6.226563 L 24.625 6.230469 L 24.589844 6.265625 L 24.589844 6.269531 L 24.585938 6.269531 C 24.496094 6.355469 24.414063 6.441406 24.332031 6.53125 L 24.328125 6.539063 L 24.3125 6.554688 L 24.296875 6.574219 L 24.289063 6.582031 L 24.285156 6.59375 L 24.269531 6.613281 L 24.253906 6.625 L 24.246094 6.632813 L 24.238281 6.644531 L 24.222656 6.664063 L 24.210938 6.675781 L 24.191406 6.703125 L 24.175781 6.71875 L 24.175781 6.722656 C 24.160156 6.742188 24.144531 6.757813 24.128906 6.773438 L 24.09375 6.824219 L 24.085938 6.839844 L 24.074219 6.851563 L 24.054688 6.878906 L 24.046875 6.890625 L 24.042969 6.894531 C 24.035156 6.910156 24.023438 6.921875 24.011719 6.9375 L 24.007813 6.949219 L 23.996094 6.960938 L 23.988281 6.972656 L 23.980469 6.988281 C 23.496094 7.683594 23.1875 8.527344 23.046875 9.46875 L 23.046875 9.484375 L 23.042969 9.5 L 23.039063 9.523438 L 23.039063 9.53125 C 23.035156 9.550781 23.03125 9.574219 23.03125 9.59375 L 23.03125 9.597656 L 23.027344 9.609375 C 23.023438 9.632813 23.023438 9.65625 23.019531 9.679688 C 23.015625 9.707031 23.011719 9.726563 23.011719 9.753906 L 23.011719 9.769531 C 22.890625 10.878906 23 12.003906 23.25 13.089844 L 23.253906 13.101563 L 23.257813 13.117188 L 23.265625 13.160156 L 23.273438 13.183594 L 23.277344 13.199219 L 23.285156 13.238281 L 23.300781 13.285156 L 23.300781 13.292969 L 23.324219 13.386719 C 23.542969 14.246094 23.847656 15.078125 24.21875 15.882813 L 24.222656 15.886719 L 24.222656 15.894531 L 24.238281 15.925781 L 24.257813 15.976563 L 24.269531 15.984375 L 24.269531 15.992188 L 24.304688 16.0625 L 24.3125 16.082031 L 24.316406 16.089844 L 24.324219 16.101563 L 24.347656 16.15625 L 24.355469 16.179688 L 24.359375 16.183594 C 24.378906 16.214844 24.390625 16.246094 24.40625 16.277344 C 24.480469 16.429688 24.558594 16.578125 24.636719 16.730469 C 24.816406 17.082031 25.019531 17.4375 25.253906 17.785156 C 25.265625 17.800781 25.277344 17.820313 25.289063 17.839844 C 25.304688 17.863281 25.320313 17.886719 25.332031 17.90625 L 25.335938 17.90625 L 25.335938 17.910156 C 26.066406 18.976563 26.949219 19.925781 27.886719 20.808594 L 27.910156 20.832031 L 27.941406 20.867188 L 27.957031 20.878906 C 28.023438 20.9375 28.085938 20.996094 28.148438 21.058594 L 28.164063 21.074219 L 28.179688 21.082031 C 28.210938 21.109375 28.238281 21.136719 28.269531 21.167969 L 28.324219 21.214844 L 28.363281 21.253906 L 28.425781 21.304688 L 28.484375 21.359375 L 28.488281 21.363281 C 28.710938 21.558594 28.933594 21.753906 29.164063 21.945313 L 29.171875 21.949219 L 29.175781 21.953125 L 29.21875 21.988281 L 29.242188 22.007813 C 29.28125 22.039063 29.3125 22.066406 29.347656 22.09375 L 29.355469 22.101563 L 29.363281 22.105469 C 30.679688 23.191406 32.082031 24.175781 33.378906 25 C 34.539063 24.265625 35.78125 23.398438 36.972656 22.449219 C 37.570313 21.972656 38.15625 21.476563 38.714844 20.957031 L 38.789063 20.886719 L 38.796875 20.878906 L 38.808594 20.871094 L 38.867188 20.8125 C 39.761719 19.972656 40.605469 19.0625 41.3125 18.058594 L 41.316406 18.054688 L 41.316406 18.050781 C 41.332031 18.027344 41.351563 18.007813 41.371094 17.980469 L 41.40625 17.925781 C 41.671875 17.539063 41.902344 17.15625 42.097656 16.769531 C 42.214844 16.542969 42.332031 16.3125 42.445313 16.082031 L 42.488281 15.984375 L 42.496094 15.976563 L 42.515625 15.929688 L 42.539063 15.886719 L 42.539063 15.878906 L 42.546875 15.863281 L 42.570313 15.8125 L 42.578125 15.789063 L 42.582031 15.78125 L 42.617188 15.699219 L 42.621094 15.691406 L 42.628906 15.6875 C 43.074219 14.683594 43.417969 13.632813 43.617188 12.554688 L 43.617188 12.542969 L 43.621094 12.535156 C 43.625 12.507813 43.628906 12.484375 43.632813 12.457031 L 43.648438 12.363281 L 43.652344 12.351563 C 43.65625 12.328125 43.660156 12.300781 43.664063 12.277344 L 43.664063 12.273438 L 43.667969 12.265625 L 43.675781 12.1875 L 43.679688 12.179688 L 43.691406 12.097656 L 43.691406 12.082031 C 43.695313 12.054688 43.699219 12.027344 43.707031 12 L 43.707031 11.996094 L 43.710938 11.945313 L 43.714844 11.917969 L 43.71875 11.910156 L 43.71875 11.902344 C 43.722656 11.875 43.722656 11.851563 43.726563 11.824219 L 43.726563 11.808594 L 43.730469 11.777344 L 43.734375 11.734375 L 43.738281 11.730469 L 43.738281 11.726563 C 43.738281 11.703125 43.742188 11.671875 43.746094 11.644531 L 43.746094 11.628906 C 43.746094 11.601563 43.753906 11.578125 43.753906 11.550781 C 43.757813 11.523438 43.761719 11.496094 43.761719 11.464844 L 43.761719 11.460938 L 43.765625 11.4375 L 43.765625 11.402344 L 43.769531 11.386719 L 43.769531 11.347656 L 43.773438 11.324219 L 43.773438 11.285156 L 43.777344 11.261719 L 43.777344 11.230469 L 43.78125 11.195313 L 43.78125 11.15625 C 43.800781 10.804688 43.800781 10.464844 43.777344 10.128906 L 43.777344 10.101563 L 43.769531 10.027344 L 43.765625 9.949219 L 43.761719 9.921875 C 43.667969 8.859375 43.363281 7.824219 42.75 6.949219 L 42.707031 6.890625 C 42.695313 6.871094 42.683594 6.855469 42.671875 6.835938 L 42.628906 6.777344 L 42.578125 6.71875 L 42.542969 6.667969 L 42.492188 6.617188 L 42.445313 6.554688 L 42.398438 6.507813 L 42.355469 6.457031 L 42.304688 6.40625 L 42.253906 6.351563 L 42.203125 6.304688 L 42.152344 6.25 L 42.097656 6.199219 L 42.046875 6.152344 L 41.992188 6.109375 L 41.9375 6.058594 L 41.882813 6.015625 L 41.832031 5.972656 L 41.773438 5.929688 L 41.714844 5.882813 L 41.65625 5.84375 L 41.597656 5.796875 L 41.539063 5.761719 L 41.480469 5.722656 C 41.460938 5.707031 41.441406 5.695313 41.421875 5.683594 L 41.363281 5.648438 L 41.296875 5.605469 L 41.234375 5.570313 L 41.199219 5.550781 L 41.175781 5.539063 L 41.113281 5.503906 L 40.980469 5.4375 L 40.917969 5.402344 L 40.851563 5.371094 L 40.785156 5.34375 L 40.71875 5.3125 L 40.648438 5.28125 L 40.585938 5.257813 L 40.515625 5.234375 L 40.445313 5.203125 L 40.304688 5.15625 C 40.285156 5.148438 40.261719 5.140625 40.242188 5.136719 L 40.195313 5.117188 C 39.230469 4.820313 38.152344 4.789063 37.105469 5.09375 L 37.101563 5.09375 L 37.074219 5.101563 L 37.058594 5.105469 C 36.234375 5.355469 35.429688 5.816406 34.710938 6.515625 L 34.679688 6.542969 C 34.667969 6.554688 34.65625 6.570313 34.644531 6.582031 L 34.640625 6.582031 C 34.171875 7.058594 33.746094 7.636719 33.378906 8.332031 C 32.542969 6.746094 31.386719 5.761719 30.160156 5.269531 L 30.113281 5.253906 L 30.019531 5.214844 C 29.355469 4.96875 28.667969 4.863281 28.003906 4.882813 Z M 44.125 25.960938 C 43.761719 25.917969 43.363281 25.957031 42.984375 26.042969 C 42.367188 26.175781 41.636719 26.605469 41.167969 27.082031 L 32.046875 35.417969 L 24.09375 35.417969 L 22.390625 33.6875 L 29.082031 32.332031 C 30.054688 32.132813 31.011719 31.128906 31.050781 30.207031 C 31.113281 28.636719 30.167969 27.082031 28.699219 27.082031 L 16.574219 27.082031 C 14.726563 27.082031 12.957031 28.230469 11.652344 29.5625 L 4.121094 37.230469 L 12.035156 44.792969 L 14.914063 42.195313 C 15.238281 41.863281 15.675781 41.667969 16.136719 41.667969 L 32.261719 41.667969 C 33.1875 41.667969 34.054688 41.277344 34.707031 40.613281 L 45.148438 29.976563 C 46.144531 28.964844 46.125 27.316406 45.066406 26.347656 C 44.820313 26.121094 44.488281 26 44.125 25.960938 Z " fill="#ffffff"/></g></svg>
