<?xml version="1.0" encoding="UTF-8"?>
<svg xmlns="http://www.w3.org/2000/svg" xmlns:xlink="http://www.w3.org/1999/xlink" viewBox="0 0 50 50" version="1.1" fill="#ffffff"><g id="surface1" fill="#ffffff"><path style=" stroke:none;fill-rule:nonzero;fill-opacity:1" d="M 34.894531 4.035156 C 32.082031 4.035156 29.269531 5.105469 27.082031 7.292969 L 21.679688 12.695313 C 20.636719 13.738281 20.636719 13.933594 21.679688 14.972656 C 28.347656 21.640625 28.984375 19.777344 31.902344 17.902344 C 30.367188 20.289063 28.898438 21.335938 32.03125 25.261719 L 22.722656 34.699219 C 21.902344 30.351563 18.144531 27.082031 13.542969 27.082031 L 12.304688 31.445313 C 12.722656 31.238281 13.125 31.25 13.542969 31.25 C 16.457031 31.25 18.75 33.542969 18.75 36.457031 C 18.75 37.847656 18.242188 39.113281 17.382813 40.039063 C 16.4375 41.054688 15.066406 41.667969 13.542969 41.667969 C 10.625 41.667969 8.332031 39.375 8.332031 36.457031 C 8.332031 36.074219 8.300781 35.839844 8.464844 35.480469 C 8.476563 35.453125 8.511719 35.449219 8.527344 35.417969 L 10.222656 27.734375 L 14.714844 7.550781 L 10.675781 6.640625 L 4.6875 33.464844 C 4.671875 33.511719 4.636719 33.546875 4.621094 33.59375 L 4.425781 34.570313 C 4.296875 35.183594 4.167969 35.804688 4.167969 36.457031 C 4.167969 41.667969 8.332031 45.832031 13.542969 45.832031 C 16.027344 45.832031 18.25 44.855469 19.921875 43.292969 C 19.96875 43.253906 20.011719 43.210938 20.050781 43.164063 C 20.085938 43.132813 20.148438 43.132813 20.183594 43.097656 C 20.351563 42.992188 20.503906 42.859375 20.636719 42.707031 L 34.832031 28.386719 C 35.804688 29.347656 36.09375 29.335938 37.109375 28.320313 L 42.511719 22.917969 C 46.886719 18.75 46.875 11.667969 42.707031 7.292969 C 40.519531 5.105469 37.707031 4.035156 34.894531 4.035156 Z M 35.613281 10.222656 C 36.652344 10.222656 37.707031 10.625 38.542969 11.457031 C 40.207031 13.125 40.207031 15.652344 38.542969 17.316406 C 36.875 18.777344 34.347656 18.777344 32.683594 17.316406 C 31.015625 15.652344 31.015625 13.125 32.683594 11.457031 C 33.515625 10.625 34.570313 10.222656 35.613281 10.222656 Z " fill="#ffffff"/></g></svg>
